<svg xmlns="http://www.w3.org/2000/svg" version="1.1" xmlns:xlink="http://www.w3.org/1999/xlink" xmlns:svgjs="http://svgjs.dev/svgjs" width="2000" height="1999" viewBox="0 0 2000 1999"><g transform="matrix(1,0,0,1,-0.431486880466764,-0.4312711370263287)"><svg viewBox="0 0 343 343" data-background-color="#444444" preserveAspectRatio="xMidYMid meet" height="1999" width="2000" xmlns="http://www.w3.org/2000/svg" xmlns:xlink="http://www.w3.org/1999/xlink"><g id="tight-bounds" transform="matrix(1,0,0,1,0.0740000000000407,0.07400000000001228)"><svg viewBox="0 0 342.85155851775386 342.85155851775386" height="342.85155851775386" width="342.85155851775386"><g><svg></svg></g><g><svg viewBox="0 0 342.85155851775386 342.85155851775386" height="342.85155851775386" width="342.85155851775386"><g><path d="M0 171.426c0-94.676 76.75-171.426 171.426-171.426 94.676 0 171.426 76.75 171.426 171.426 0 94.676-76.75 171.426-171.426 171.426-94.676 0-171.426-76.75-171.426-171.426zM171.426 339.805c92.993 0 168.38-75.386 168.379-168.379 0-92.993-75.386-168.38-168.379-168.38-92.993 0-168.38 75.386-168.38 168.38 0 92.993 75.386 168.38 168.38 168.379z" data-fill-palette-color="tertiary" fill="#ffffff" stroke="transparent"></path><ellipse rx="164.56874808852186" ry="164.56874808852186" cx="171.42577925887693" cy="171.42577925887693" fill="#ffffff" stroke="transparent" stroke-width="0" fill-opacity="1" data-fill-palette-color="tertiary"></ellipse></g><g transform="matrix(1,0,0,1,64.84655864529837,127.20738000327508)"><svg viewBox="0 0 213.1584412271571 88.4367985112037" height="88.4367985112037" width="213.1584412271571"><g><svg viewBox="0 0 213.1584412271571 88.4367985112037" height="88.4367985112037" width="213.1584412271571"><g><svg viewBox="0 0 213.1584412271571 88.4367985112037" height="88.4367985112037" width="213.1584412271571"><g transform="matrix(1,0,0,1,0,54.65748938831969)"><svg viewBox="0 0 213.1584412271571 33.77930912288402" height="33.77930912288402" width="213.1584412271571"><g id="textblocktransform"><svg viewBox="0 0 213.1584412271571 33.77930912288402" height="33.77930912288402" width="213.1584412271571" id="textblock"><g><svg viewBox="0 0 213.1584412271571 33.77930912288402" height="33.77930912288402" width="213.1584412271571"><g transform="matrix(1,0,0,1,0,0)"><svg width="213.1584412271571" viewBox="4.49 -36.06249999999999 229.64000000000001 36.306573303701995" height="33.77930912288402" data-palette-color="#444444"><path d="M27.8-0.9L15.1-17.05 9.9-12.75Q9.95-6.9 10.15-2.6L10.15-2.6Q10.2-1.55 9.53-0.78 8.85 0 7.8 0.05 6.75 0.1 5.98-0.58 5.2-1.25 5.15-2.3L5.15-2.3Q5-5.3 4.95-8.2L4.95-8.2Q4.9-11.8 4.9-15.55 4.9-19.3 4.85-21.4L4.85-21.4Q4.85-22.7 4.65-26.78 4.45-30.85 4.5-33.3L4.5-33.3Q4.5-34.35 5.25-35.05 6-35.75 7.05-35.75 8.1-35.75 8.8-35 9.5-34.25 9.5-33.2L9.5-33.2Q9.45-30.8 9.65-26.8 9.85-22.8 9.85-21.5L9.85-21.5Q9.85-20.4 9.9-19.15L9.9-19.15Q17.75-25.7 26.2-34.9L26.2-34.9Q26.9-35.65 27.95-35.7 29-35.75 29.75-35.05 30.5-34.35 30.55-33.3 30.6-32.25 29.9-31.5L29.9-31.5Q24.3-25.3 18.85-20.35L18.85-20.35 31.7-4Q32.35-3.2 32.23-2.18 32.1-1.15 31.3-0.5 30.5 0.15 29.48 0.03 28.45-0.1 27.8-0.9L27.8-0.9ZM62.65 0.15L62.65 0.15Q62.3 0.15 62 0.05L62 0.05Q60.55 0.3 59.6-0.8L59.6-0.8Q58.25-2.45 56.77-4.53 55.3-6.6 54.35-8.1L54.35-8.1 51.85-12.05 49.55-15.65Q46.15-20.9 41.75-26.7L41.75-26.7Q41.7-22.5 41.92-14.4 42.15-6.3 42.15-2.45L42.15-2.45Q42.15-1.4 41.42-0.68 40.7 0.05 39.65 0.05 38.6 0.05 37.87-0.68 37.15-1.4 37.15-2.45L37.15-2.45Q37.15-5.45 36.9-16.03 36.65-26.6 36.85-32.3L36.85-32.3Q36.9-33.05 37.2-33.85L37.2-33.85Q37.45-34.55 38.2-35.25L38.2-35.25Q39-35.8 40.05-35.7 41.1-35.6 41.75-34.8L41.75-34.8Q48.85-25.95 53.75-18.35L53.75-18.35 55.8-15.1 58.15-11.4 60.2-8.35Q60.45-25 60.3-33.2L60.3-33.2Q60.3-34.25 61-35 61.7-35.75 62.75-35.75 63.8-35.75 64.55-35.05 65.3-34.35 65.3-33.3L65.3-33.3Q65.4-27.05 65.15-2.3L65.15-2.3Q65.15-1.3 64.4-0.58 63.65 0.15 62.65 0.15L62.65 0.15ZM85.44 0.15L85.44 0.15Q82.84-0.2 80.69-1.23 78.55-2.25 77.05-3.75 75.55-5.25 74.42-7.15 73.3-9.05 72.82-11.13 72.34-13.2 72.17-15.4 72-17.6 72.25-19.65L72.25-19.65Q72.55-22.25 73.42-24.7 74.3-27.15 75.8-29.33 77.3-31.5 79.27-33.02 81.25-34.55 83.89-35.25 86.55-35.95 89.19-36.05L89.19-36.05Q90.39-36.1 91.69-35.95L91.69-35.95Q94.14-35.65 95.64-35.15L95.64-35.15Q99.09-34 101.37-31.63 103.65-29.25 104.65-26.38 105.65-23.5 105.67-20.28 105.69-17.05 104.92-13.95 104.15-10.85 102.55-8 100.94-5.15 98.34-3.13 95.75-1.1 92.37-0.23 89 0.65 85.44 0.15L85.44 0.15ZM86.19-4.95L86.19-4.95Q90.84-4.1 94.84-6.9L94.84-6.9Q98.89-9.7 100.14-15.3L100.14-15.3Q100.89-18.7 100.5-21.73 100.09-24.75 98.39-27.03 96.69-29.3 94.3-30.25L94.3-30.25Q93.14-30.7 92.47-30.85 91.8-31 90.84-31L90.84-31Q90.09-31 89.19-31.05L89.19-31.05Q88.25-31.1 86.69-30.9L86.69-30.9Q83.84-30.55 80.84-27.38 77.84-24.2 77.3-19.1L77.3-19.1Q76.89-15.55 77.67-12.45 78.44-9.35 80.69-7.45L80.69-7.45Q82.89-5.6 86.19-4.95L86.19-4.95ZM122.59-2.5L122.59-2.5Q122.59-1.45 121.84-0.75 121.09-0.05 120.04-0.05 118.99-0.05 118.29-0.8 117.59-1.55 117.59-2.6L117.59-2.6Q117.64-4.35 117.54-16.75L117.54-16.75Q117.49-25.8 117.84-30.75L117.84-30.75Q112.39-30.8 108.64-30.65L108.64-30.65Q107.59-30.6 106.84-31.33 106.09-32.05 106.04-33.08 105.99-34.1 106.72-34.85 107.44-35.6 108.44-35.65L108.44-35.65Q112.74-35.8 120.39-35.75 128.04-35.7 132.34-35.75L132.34-35.75Q133.39-35.75 134.14-35.05 134.89-34.35 134.89-33.3 134.89-32.25 134.19-31.5 133.49-30.75 132.44-30.75L132.44-30.75Q128.89-30.7 122.84-30.7L122.84-30.7Q122.49-25.9 122.54-16.8L122.54-16.8Q122.64-4.35 122.59-2.5L122.59-2.5ZM139.84 0.1L139.84 0.1Q138.79 0.15 138.04-0.58 137.29-1.3 137.24-2.33 137.19-3.35 137.92-4.1 138.64-4.85 139.64-4.9L139.64-4.9 140.74-4.95Q140.74-20.5 140.64-30.8L140.64-30.8 139.84-30.8Q138.79-30.8 138.09-31.55 137.39-32.3 137.39-33.35 137.39-34.4 138.14-35.1 138.89-35.8 139.94-35.8L139.94-35.8Q142.49-35.75 146.14-35.7L146.14-35.7Q147.14-35.7 147.87-34.95 148.59-34.2 148.59-33.18 148.59-32.15 147.84-31.43 147.09-30.7 146.04-30.7L146.04-30.7 145.64-30.7Q145.74-20.45 145.74-5L145.74-5 146.74-5Q147.79-5 148.52-4.28 149.24-3.55 149.24-2.5 149.24-1.45 148.52-0.73 147.79 0 146.74 0L146.74 0Q142.89 0 139.84 0.1L139.84 0.1ZM155.84-2.4L155.84-2.4Q155.84-4.35 155.91-11.4 155.99-18.45 155.91-22.98 155.84-27.5 155.49-32.2L155.49-32.2Q155.49-32.5 155.54-32.8L155.54-32.8Q155.49-33 155.49-33.15L155.49-33.15Q155.49-34.2 156.19-34.95 156.89-35.7 157.94-35.7L157.94-35.7Q171.84-35.95 178.29-35.7L178.29-35.7Q179.34-35.65 180.04-34.9 180.74-34.15 180.69-33.1 180.64-32.05 179.89-31.35 179.14-30.65 178.09-30.7L178.09-30.7Q171.79-30.95 160.59-30.75L160.59-30.75Q160.89-26.05 160.94-20.4L160.94-20.4Q164.24-20.4 175.79-20.55L175.79-20.55Q176.84-20.55 177.59-19.83 178.34-19.1 178.34-18.07 178.34-17.05 177.61-16.3 176.89-15.55 175.89-15.55L175.89-15.55Q164.29-15.4 160.94-15.4L160.94-15.4Q160.94-13.75 160.89-9.28 160.84-4.8 160.84-2.4L160.84-2.4Q160.84-1.35 160.11-0.63 159.39 0.1 158.34 0.1 157.29 0.1 156.56-0.63 155.84-1.35 155.84-2.4L155.84-2.4ZM197.44 0.1L197.44 0.1Q190.94 0.2 188.19 0.05L188.19 0.05Q187.24 0 186.54-0.68 185.84-1.35 185.79-2.35L185.79-2.35Q185.74-2.6 185.74-2.8L185.74-2.8Q185.69-5.65 185.49-16.25 185.29-26.85 185.29-33.55L185.29-33.55Q185.29-34.6 186.01-35.33 186.74-36.05 187.79-36.05 188.84-36.05 189.56-35.33 190.29-34.6 190.29-33.55L190.29-33.55Q190.29-28.5 190.36-23.85 190.44-19.2 190.56-13.63 190.69-8.05 190.69-4.9L190.69-4.9Q193.29-4.85 198.66-4.95 204.04-5.05 206.84-5L206.84-5Q207.89-5 208.59-4.25 209.29-3.5 209.29-2.45 209.29-1.4 208.54-0.7 207.79 0 206.74 0L206.74 0Q204.04-0.05 197.44 0.1L197.44 0.1ZM217.33-2.25L217.33-2.25Q217.13-3.7 217.08-8.75L217.08-8.75Q217.03-11.95 216.98-13.05L216.98-13.05 208.98-26.2Q207.13-29.3 205.58-32.2L205.58-32.2Q205.08-33.1 205.38-34.1 205.68-35.1 206.58-35.6 207.48-36.1 208.48-35.8 209.48-35.5 209.98-34.6L209.98-34.6Q212.23-30.4 219.33-18.75L219.33-18.75Q220.28-20.3 222.18-23 224.08-25.7 224.78-26.85L224.78-26.85Q225.13-27.4 227.08-30.8L227.08-30.8Q228.53-33.35 229.58-34.9L229.58-34.9Q230.13-35.75 231.16-35.95 232.18-36.15 233.03-35.58 233.88-35 234.08-33.98 234.28-32.95 233.68-32.1L233.68-32.1Q233.03-31.1 231.43-28.3L231.43-28.3 229.08-24.25Q228.18-22.85 225.68-19.28 223.18-15.7 222.08-13.4L222.08-13.4Q222.03-13.25 221.98-13.15L221.98-13.15Q222.03-12.05 222.08-8.8L222.08-8.8Q222.13-4.1 222.33-2.75L222.33-2.75Q222.43-1.7 221.76-0.9 221.08-0.1 220.06 0 219.03 0.1 218.23-0.58 217.43-1.25 217.33-2.25L217.33-2.25Z" opacity="1" transform="matrix(1,0,0,1,0,0)" fill="#000000" class="wordmark-text-0" data-fill-palette-color="quaternary" id="text-0"></path></svg></g></svg></g></svg></g></svg></g><g transform="matrix(1,0,0,1,71.20068671995631,0)"><svg viewBox="0 0 70.75706778724451 46.68300520782572" height="46.68300520782572" width="70.75706778724451"><g><svg xmlns="http://www.w3.org/2000/svg" xmlns:xlink="http://www.w3.org/1999/xlink" version="1.1" x="0" y="0" viewBox="230.87592970521544 672.3277669883006 70.2481404819732 46.34723301169936" enable-background="new 216 645.5 100 100" xml:space="preserve" height="46.68300520782572" width="70.75706778724451" class="icon-icon-0" data-fill-palette-color="quaternary" id="icon-0"><path fill="#000000" d="M301.124 677.032c0-0.003-0.002-0.005-0.002-0.008-0.007-0.107-0.042-0.209-0.095-0.302-0.014-0.026-0.034-0.045-0.052-0.069-0.047-0.062-0.101-0.116-0.166-0.161-0.017-0.011-0.024-0.03-0.042-0.04l-7.057-4.031c-0.198-0.114-0.44-0.124-0.649-0.027L266 684.928l-27.062-12.534c-0.209-0.097-0.451-0.087-0.649 0.027l-7.056 4.031c-0.018 0.01-0.025 0.029-0.042 0.04-0.065 0.045-0.118 0.098-0.165 0.16-0.018 0.024-0.039 0.044-0.054 0.071-0.052 0.093-0.087 0.193-0.094 0.301 0 0.003-0.002 0.005-0.002 0.008-0.001 0.016 0.009 0.028 0.009 0.044 0.001 0.073 0.004 0.146 0.028 0.219l6.048 17.856c0.073 0.218 0.249 0.387 0.47 0.452l5.329 1.574-2.659 3.354c-0.143 0.181-0.189 0.419-0.124 0.641l2.88 9.792c0.019 0.063 0.047 0.125 0.082 0.182l3.312 5.185c0.03 0.046 0.07 0.083 0.109 0.121 0.013 0.013 0.022 0.029 0.037 0.041 0.062 0.051 0.13 0.093 0.206 0.121l5.473 2.016c0.016 0.006 0.031 0.004 0.047 0.009 0.018 0.005 0.032 0.016 0.05 0.02 0.05 0.01 0.1 0.016 0.148 0.016 0.124 0 0.242-0.039 0.349-0.099 0.011-0.007 0.021-0.01 0.032-0.017 0.098-0.062 0.175-0.151 0.233-0.257 0.005-0.011 0.018-0.015 0.022-0.025l9.963-20.364-1.266 6.32c-0.039 0.195 0.007 0.398 0.125 0.559l3.65 4.954c0.016 0.021 0.041 0.03 0.059 0.05 0.031 0.033 0.054 0.072 0.092 0.101 0.022 0.017 0.049 0.023 0.073 0.038 0.023 0.013 0.045 0.025 0.069 0.036 0.09 0.038 0.183 0.064 0.276 0.064H266h0.001c0.094 0 0.187-0.026 0.276-0.064 0.024-0.011 0.046-0.023 0.069-0.036 0.024-0.015 0.051-0.021 0.073-0.038 0.038-0.028 0.061-0.067 0.092-0.101 0.018-0.02 0.043-0.028 0.059-0.05l3.65-4.954c0.118-0.16 0.164-0.363 0.125-0.559l-1.266-6.317 9.963 20.361c0.005 0.011 0.018 0.015 0.022 0.025 0.059 0.105 0.136 0.195 0.233 0.257 0.011 0.007 0.021 0.01 0.032 0.017 0.106 0.06 0.225 0.099 0.349 0.099 0.049 0 0.099-0.006 0.148-0.016 0.019-0.004 0.032-0.015 0.05-0.02 0.016-0.005 0.031-0.003 0.047-0.009l5.473-2.016c0.076-0.028 0.145-0.069 0.206-0.121 0.015-0.012 0.024-0.028 0.038-0.042 0.039-0.037 0.079-0.074 0.108-0.12l3.312-5.185c0.035-0.057 0.063-0.118 0.082-0.182l2.88-9.792c0.065-0.222 0.019-0.46-0.124-0.641l-2.659-3.354 5.329-1.574c0.221-0.065 0.396-0.234 0.47-0.452l6.048-17.856c0.024-0.073 0.027-0.146 0.028-0.219C301.115 677.061 301.125 677.048 301.124 677.032zM293.325 673.833l5.776 3.3-16.052 11.418-14.812-3.099L293.325 673.833zM238.674 673.833l25.088 11.619-14.812 3.099-16.052-11.418L238.674 673.833zM232.957 678.914l15.424 10.971c0.121 0.086 0.265 0.132 0.411 0.132 0.049 0 0.097-0.005 0.146-0.016l13.131-2.747-18.162 8.785-5.721-1.69L232.957 678.914zM241.439 701.124l2.984-3.762 16.875-8.161-10.063 10.709c-0.002 0.002-0.002 0.004-0.003 0.006-0.022 0.023-0.033 0.056-0.052 0.082-0.035 0.051-0.073 0.1-0.094 0.156 0 0.003-0.002 0.004-0.003 0.006-0.128 0.362-3.259 10.316-4.457 14.126l-2.439-3.819L241.439 701.124zM251.178 704.551l0.4 12.385-3.852-1.419C248.602 712.731 250.106 707.947 251.178 704.551zM263.801 692.885l-10.864 22.207-0.467-14.426 12.395-13.189 0.161-0.078-1.055 5.265C263.902 692.724 263.844 692.798 263.801 692.885zM266 708.13l-2.894-3.928L266 689.751l2.894 14.451L266 708.13zM266.975 687.398l0.159 0.077 12.396 13.191-0.466 14.425-10.865-22.207c-0.043-0.086-0.101-0.16-0.169-0.22L266.975 687.398zM280.821 704.551c1.072 3.396 2.577 8.181 3.452 10.966l-3.852 1.419L280.821 704.551zM287.812 710.467l-2.439 3.82c-1.198-3.811-4.33-13.765-4.458-14.127-0.001-0.002-0.003-0.003-0.003-0.006-0.021-0.056-0.058-0.104-0.092-0.153-0.02-0.027-0.031-0.062-0.054-0.085-0.001-0.002-0.001-0.004-0.003-0.006l-10.064-10.71 16.877 8.162 2.984 3.762L287.812 710.467zM293.814 694.349l-5.721 1.69-18.162-8.785 13.131 2.747c0.049 0.011 0.097 0.016 0.146 0.016 0.146 0 0.29-0.046 0.411-0.132l15.424-10.971L293.814 694.349z" data-fill-palette-color="quaternary"></path></svg></g></svg></g><g></g></svg></g></svg></g></svg></g></svg></g><defs></defs></svg><rect width="342.85155851775386" height="342.85155851775386" fill="none" stroke="none" visibility="hidden"></rect></g></svg></g></svg>